<?xml version="1.0" standalone="no"?><svg xmlns:xlink="http://www.w3.org/1999/xlink" xmlns="http://www.w3.org/2000/svg" viewBox="0 0 200 200" preserveAspectRatio="xMaxYMax slice"><g transform="scale(0.5361930294906166)"><rect x="0" y="0" width="373" height="373" fill="#ffffff"/><g transform="translate(87.8,50.5) scale(0.545) rotate(0)"><path fill-rule="evenodd" clip-rule="evenodd" d="M10 20C15.5228 20 20 15.5228 20 10C20 4.47715 15.5228 0 10 0C4.47715 0 0 4.47715 0 10C0 15.5228 4.47715 20 10 20ZM10 17C13.866 17 17 13.866 17 10C17 6.13401 13.866 3 10 3C6.13401 3 3 6.13401 3 10C3 13.866 6.13401 17 10 17Z" fill="#a9b8f4"/></g><rect x="124.241824" y="49.641824" width="12.616351999999996" height="12.616351999999996" fill="#ffffff"/><g transform="translate(130.55,55.95) scale(0.3155) rotate(0)"><path fill-rule="evenodd" clip-rule="evenodd" d="M10 20C15.5228 20 20 15.5228 20 10C20 4.47715 15.5228 0 10 0C4.47715 0 0 4.47715 0 10C0 15.5228 4.47715 20 10 20ZM10 17C13.866 17 17 13.866 17 10C17 6.13401 13.866 3 10 3C6.13401 3 3 6.13401 3 10C3 13.866 6.13401 17 10 17Z" fill="#afbdf5"/></g><rect x="349.760608" y="51.360608" width="9.178783999999997" height="9.178783999999997" fill="#ffffff"/><circle cx="352.055" cy="58.245000000000005" r="2.295" fill="#c4cef7"/><g transform="translate(14.92,89.52) scale(0.373) rotate(0)"><path fill-rule="evenodd" clip-rule="evenodd" d="M10 20C15.5228 20 20 15.5228 20 10C20 4.47715 15.5228 0 10 0C4.47715 0 0 4.47715 0 10C0 15.5228 4.47715 20 10 20ZM10 17C13.866 17 17 13.866 17 10C17 6.13401 13.866 3 10 3C6.13401 3 3 6.13401 3 10C3 13.866 6.13401 17 10 17Z" fill="#183fe1"/></g><rect x="121.663648" y="84.363648" width="17.772703999999994" height="17.772703999999994" fill="#ffffff"/><circle cx="126.10499999999999" cy="88.805" r="4.445" fill="#d9e0fa"/><g transform="translate(130.55,93.25) scale(0.4445) rotate(0)"><path fill-rule="evenodd" clip-rule="evenodd" d="M10 20C15.5228 20 20 15.5228 20 10C20 4.47715 15.5228 0 10 0C4.47715 0 0 4.47715 0 10C0 15.5228 4.47715 20 10 20ZM10 17C13.866 17 17 13.866 17 10C17 6.13401 13.866 3 10 3C6.13401 3 3 6.13401 3 10C3 13.866 6.13401 17 10 17Z" fill="#a5b4f3"/></g><rect x="157.24486399999998" y="82.644864" width="21.210271999999996" height="21.210271999999996" fill="#ffffff"/><g transform="translate(157.24,82.64) scale(0.5305) rotate(0)"><path fill-rule="evenodd" clip-rule="evenodd" d="M10 20C15.5228 20 20 15.5228 20 10C20 4.47715 15.5228 0 10 0C4.47715 0 0 4.47715 0 10C0 15.5228 4.47715 20 10 20ZM10 17C13.866 17 17 13.866 17 10C17 6.13401 13.866 3 10 3C6.13401 3 3 6.13401 3 10C3 13.866 6.13401 17 10 17Z" fill="#b2bff5"/></g><g transform="translate(157.24,93.25) scale(0.5305) rotate(0)"><path fill-rule="evenodd" clip-rule="evenodd" d="M10 20C15.5228 20 20 15.5228 20 10C20 4.47715 15.5228 0 10 0C4.47715 0 0 4.47715 0 10C0 15.5228 4.47715 20 10 20ZM10 17C13.866 17 17 13.866 17 10C17 6.13401 13.866 3 10 3C6.13401 3 3 6.13401 3 10C3 13.866 6.13401 17 10 17Z" fill="#3a5be5"/></g><rect x="308.16364799999997" y="121.663648" width="17.772703999999994" height="17.772703999999994" fill="#ffffff"/><g transform="translate(317.05,121.66) scale(0.4445) rotate(0)"><path fill-rule="evenodd" clip-rule="evenodd" d="M10 20C15.5228 20 20 15.5228 20 10C20 4.47715 15.5228 0 10 0C4.47715 0 0 4.47715 0 10C0 15.5228 4.47715 20 10 20ZM10 17C13.866 17 17 13.866 17 10C17 6.13401 13.866 3 10 3C6.13401 3 3 6.13401 3 10C3 13.866 6.13401 17 10 17Z" fill="#a9b8f4"/></g><circle cx="312.605" cy="134.995" r="4.445" fill="#dce2fa"/><g transform="translate(317.05,130.55) scale(0.4445) rotate(0)"><path fill-rule="evenodd" clip-rule="evenodd" d="M10 20C15.5228 20 20 15.5228 20 10C20 4.47715 15.5228 0 10 0C4.47715 0 0 4.47715 0 10C0 15.5228 4.47715 20 10 20ZM10 17C13.866 17 17 13.866 17 10C17 6.13401 13.866 3 10 3C6.13401 3 3 6.13401 3 10C3 13.866 6.13401 17 10 17Z" fill="#748bed"/></g><rect x="187.0968" y="149.7968" width="36.106399999999994" height="36.106399999999994" fill="#ffffff"/><circle cx="214.175" cy="158.82500000000002" r="9.025" fill="#fafbfe"/><circle cx="55.95" cy="205.15" r="7.31" fill="#2f52e4"/><g transform="translate(186.5,186.5) scale(1.8649999999999998) rotate(0)"><path fill-rule="evenodd" clip-rule="evenodd" d="M10 20C15.5228 20 20 15.5228 20 10C20 4.47715 15.5228 0 10 0C4.47715 0 0 4.47715 0 10C0 15.5228 4.47715 20 10 20ZM10 17C13.866 17 17 13.866 17 10C17 6.13401 13.866 3 10 3C6.13401 3 3 6.13401 3 10C3 13.866 6.13401 17 10 17Z" fill="#1a41e1"/></g><rect x="153.80729599999998" y="265.707296" width="28.085407999999994" height="28.085407999999994" fill="#ffffff"/><g transform="translate(167.85,265.71) scale(0.702) rotate(0)"><path fill-rule="evenodd" clip-rule="evenodd" d="M10 20C15.5228 20 20 15.5228 20 10C20 4.47715 15.5228 0 10 0C4.47715 0 0 4.47715 0 10C0 15.5228 4.47715 20 10 20ZM10 17C13.866 17 17 13.866 17 10C17 6.13401 13.866 3 10 3C6.13401 3 3 6.13401 3 10C3 13.866 6.13401 17 10 17Z" fill="#9eaef2"/></g><g transform="translate(228.41,265.71) scale(1.4045) rotate(0)"><path fill-rule="evenodd" clip-rule="evenodd" d="M10 20C15.5228 20 20 15.5228 20 10C20 4.47715 15.5228 0 10 0C4.47715 0 0 4.47715 0 10C0 15.5228 4.47715 20 10 20ZM10 17C13.866 17 17 13.866 17 10C17 6.13401 13.866 3 10 3C6.13401 3 3 6.13401 3 10C3 13.866 6.13401 17 10 17Z" fill="#b3c0f5"/></g><rect x="308.16364799999997" y="270.86364799999996" width="17.772703999999994" height="17.772703999999994" fill="#ffffff"/><g transform="translate(308.16,270.86) scale(0.4445) rotate(0)"><path fill-rule="evenodd" clip-rule="evenodd" d="M10 20C15.5228 20 20 15.5228 20 10C20 4.47715 15.5228 0 10 0C4.47715 0 0 4.47715 0 10C0 15.5228 4.47715 20 10 20ZM10 17C13.866 17 17 13.866 17 10C17 6.13401 13.866 3 10 3C6.13401 3 3 6.13401 3 10C3 13.866 6.13401 17 10 17Z" fill="#dce2fa"/></g><g transform="translate(50.5,311.6) scale(0.545) rotate(0)"><path fill-rule="evenodd" clip-rule="evenodd" d="M10 20C15.5228 20 20 15.5228 20 10C20 4.47715 15.5228 0 10 0C4.47715 0 0 4.47715 0 10C0 15.5228 4.47715 20 10 20ZM10 17C13.866 17 17 13.866 17 10C17 6.13401 13.866 3 10 3C6.13401 3 3 6.13401 3 10C3 13.866 6.13401 17 10 17Z" fill="#5a76ea"/></g><circle cx="93.25" cy="317.05" r="7.17" fill="#ced7f9"/><circle cx="317.05" cy="317.05" r="7.17" fill="#657feb"/><rect x="348.901216" y="311.60121599999997" width="10.897567999999996" height="10.897567999999996" fill="#ffffff"/><g transform="translate(348.9,317.05) scale(0.2725) rotate(0)"><path fill-rule="evenodd" clip-rule="evenodd" d="M10 20C15.5228 20 20 15.5228 20 10C20 4.47715 15.5228 0 10 0C4.47715 0 0 4.47715 0 10C0 15.5228 4.47715 20 10 20ZM10 17C13.866 17 17 13.866 17 10C17 6.13401 13.866 3 10 3C6.13401 3 3 6.13401 3 10C3 13.866 6.13401 17 10 17Z" fill="#d6ddfa"/></g><circle cx="279.75" cy="354.35" r="6.31" fill="#cbd4f8"/><rect x="349.760608" y="349.760608" width="9.178783999999997" height="9.178783999999997" fill="#ffffff"/></g></svg>