<?xml version="1.0" encoding="UTF-8" standalone="no"?>
<!-- Created with Inkscape (http://www.inkscape.org/) -->
<svg
   xmlns:dc="http://purl.org/dc/elements/1.1/"
   xmlns:cc="http://creativecommons.org/ns#"
   xmlns:rdf="http://www.w3.org/1999/02/22-rdf-syntax-ns#"
   xmlns:svg="http://www.w3.org/2000/svg"
   xmlns="http://www.w3.org/2000/svg"
   xmlns:sodipodi="http://sodipodi.sourceforge.net/DTD/sodipodi-0.dtd"
   xmlns:inkscape="http://www.inkscape.org/namespaces/inkscape"
   width="234.79561"
   height="299.79538"
   id="svg1901"
   sodipodi:version="0.32"
   inkscape:version="0.46+pre4"
   sodipodi:docname="miekkajakilpi.svg"
   sodipodi:docbase="/home/tsoots/ohj/translations/po"
   version="1.0"
   inkscape:output_extension="org.inkscape.output.svg.inkscape">
  <defs
     id="defs1903">
    <inkscape:perspective
       sodipodi:type="inkscape:persp3d"
       inkscape:vp_x="0 : 526.18109 : 1"
       inkscape:vp_y="0 : 1000 : 0"
       inkscape:vp_z="744.09448 : 526.18109 : 1"
       inkscape:persp3d-origin="372.04724 : 350.78739 : 1"
       id="perspective7" />
  </defs>
  <sodipodi:namedview
     id="base"
     pagecolor="#ffffff"
     bordercolor="#666666"
     borderopacity="1.0"
     inkscape:pageopacity="0.0"
     inkscape:pageshadow="2"
     inkscape:zoom="0.7"
     inkscape:cx="463.88132"
     inkscape:cy="566.83334"
     inkscape:document-units="px"
     inkscape:current-layer="layer1"
     gridtolerance="10000"
     inkscape:window-width="1280"
     inkscape:window-height="938"
     inkscape:window-x="-4"
     inkscape:window-y="-4"
     showgrid="false" />
  <metadata
     id="metadata1906">
    <rdf:RDF>
      <cc:Work
         rdf:about="">
        <dc:format>image/svg+xml</dc:format>
        <dc:type
           rdf:resource="http://purl.org/dc/dcmitype/StillImage" />
      </cc:Work>
    </rdf:RDF>
  </metadata>
  <g
     inkscape:label="Taso 1"
     inkscape:groupmode="layer"
     id="layer1"
     style="opacity:1"
     transform="translate(-119.55813,-328.49946)">
    <g
       id="g3165"
       transform="matrix(0.9928142,0.1196658,-0.1196658,0.9928142,64.196455,-31.621732)">
      <path
         id="path2382"
         d="M 313.08455,328.01271 L 287.89705,371.63874 L 264.54142,358.15437 L 251.67293,376.38074 L 276.78767,390.88074 L 270.16267,402.35558 L 139.23224,600.57123 L 136.55275,645.21224 L 178.79878,623.41498 L 288.92068,409.86576 L 294.05405,400.84949 L 319.8995,415.77137 L 331.00888,396.52937 L 305.02811,381.52937 L 329.94498,337.74709 L 313.08455,328.01271 z"
         style="fill:#b3b3b3;fill-rule:evenodd;stroke:#000000;stroke-width:6;stroke-linecap:butt;stroke-linejoin:miter;stroke-opacity:1" />
      <path
         id="path3161"
         d="M 135.71429,642.36218 L 285.71429,392.36218 L 294.28571,399.50504 L 178.57143,623.07647 L 135.71429,646.6479"
         style="fill:#ffffff;fill-opacity:0.41040464;fill-rule:evenodd;stroke:none;stroke-width:1px;stroke-linecap:butt;stroke-linejoin:miter;stroke-opacity:1" />
      <path
         style="fill:none;fill-rule:evenodd;stroke:#000000;stroke-width:6;stroke-linecap:butt;stroke-linejoin:miter;stroke-opacity:1"
         d="M 313.08455,328.01271 L 287.89705,371.63874 L 264.54142,358.15437 L 251.67293,376.38074 L 276.78767,390.88074 L 270.16267,402.35558 L 139.23224,600.57123 L 136.55275,645.21224 L 178.79878,623.41498 L 288.92068,409.86576 L 294.05405,400.84949 L 319.8995,415.77137 L 331.00888,396.52937 L 305.02811,381.52937 L 329.94498,337.74709 L 313.08455,328.01271 z"
         id="path3163" />
    </g>
    <path
       style="fill:#ac9393;fill-rule:evenodd;stroke:#000000;stroke-width:6;stroke-linecap:butt;stroke-linejoin:miter;stroke-opacity:1"
       d="M 140.6928,442.75403 C 140.02759,409.88731 210.58142,412.52834 226.51551,380.09678 C 234.64754,410.32249 306.84676,411.9545 304.53617,442.75403 C 295.04763,569.23421 218.71345,587.13813 218.71345,587.13813 C 218.71345,587.13813 143.16386,564.84296 140.6928,442.75403 z"
       id="path2380"
       sodipodi:nodetypes="ccscs" />
    <path
       style="fill:#ffffff;fill-rule:evenodd;stroke:none;stroke-width:1px;stroke-linecap:butt;stroke-linejoin:miter;stroke-opacity:1"
       d="M 156.23436,468.01602 C 146.35211,460.99605 158.0947,436.688 167.67717,429.26405 C 178.28302,421.04723 208.04165,415.01736 212.37172,427.7158 C 219.06272,447.3379 173.13562,480.02199 156.23436,468.01602 z"
       id="path2387"
       sodipodi:nodetypes="csss" />
    <path
       style="fill:#000000;fill-opacity:0.42196536;fill-rule:evenodd;stroke:none;stroke-width:1px;stroke-linecap:butt;stroke-linejoin:miter;stroke-opacity:1"
       d="M 175.21252,533.80756 C 175.21252,533.80756 211.15157,555.21406 226.54785,550.26377 C 260.49292,539.34956 297.37594,454.81791 297.37594,454.81791 C 297.37594,454.81791 282.19007,508.13374 269.00172,527.45767 C 257.87799,543.75645 240.39744,571.62212 220.66968,572.0732 C 202.84866,572.48068 175.21252,533.80756 175.21252,533.80756 z"
       id="path3159"
       sodipodi:nodetypes="cscssc" />
  </g>
</svg>
